HIERARCHY
ROOT pelvis
{
  OFFSET 0 100 0
  CHANNELS 6 Xposition Yposition Zposition Zrotation Xrotation Yrotation
  JOINT pelvis_right_femur
  {
    OFFSET -10.78128 -3.44521 -0.5502486
    CHANNELS 3 Zrotation Xrotation Yrotation
    JOINT right_femur_tibia
    {
      OFFSET -0.8047443 -44.0398 -0.1307829
      CHANNELS 3 Zrotation Xrotation Yrotation
      JOINT right_tibia_foot
      {
        OFFSET 3.006224 -47.83518 -5
        CHANNELS 3 Zrotation Xrotation Yrotation
        End Site
        {
          OFFSET 0 -5 15
        }
      }
    }
  }
  JOINT pelvis_left_femur
  {
    OFFSET 10.78128 -3.44521 -0.5502486
    CHANNELS 3 Zrotation Xrotation Yrotation
    JOINT left_femur_tibia
    {
      OFFSET 0.8047443 -44.0398 -0.1307829
      CHANNELS 3 Zrotation Xrotation Yrotation
      JOINT left_tibia_foot
      {
        OFFSET -4.370144 -48.10324 -4.275266
        CHANNELS 3 Zrotation Xrotation Yrotation
        End Site
        {
          OFFSET 0 -5 15
        }
      }
    }
  }
  JOINT pelvis_spine1
  {
    OFFSET 0 6.468898 -3.129235
    CHANNELS 3 Zrotation Xrotation Yrotation
    JOINT spine1
    {
      OFFSET 0 23.15396 4.99043
      CHANNELS 3 Zrotation Xrotation Yrotation
      JOINT spine2
      {
        OFFSET 0 20.79997 -5.064912
        CHANNELS 3 Zrotation Xrotation Yrotation
        JOINT neck
        {
          OFFSET 0 14.38658 9.616178
          CHANNELS 3 Zrotation Xrotation Yrotation
          End Site
          {
            OFFSET 0 20 0
          }
        }
      }
      JOINT right_manubrium
      {
        OFFSET -5.722621 16.35077 3.967754
        CHANNELS 3 Zrotation Xrotation Yrotation
        JOINT right_clavicle
        {
          OFFSET -13.16364 1.694482 -4.693211
          CHANNELS 3 Zrotation Xrotation Yrotation
          JOINT right_humerus
          {
            OFFSET -28.5034 -0.3100689 -2.792744
            CHANNELS 3 Zrotation Xrotation Yrotation
            JOINT right_radius
            {
              OFFSET -25.15693 0.02248979 -1.271978
              CHANNELS 3 Zrotation Xrotation Yrotation
              End Site
              {
                OFFSET -15 0 0
              }
            }
          }
        }
      }
      JOINT left_manubrium
      {
        OFFSET 5.722621 16.35077 3.967754
        CHANNELS 3 Zrotation Xrotation Yrotation
        JOINT left_clavicle
        {
          OFFSET 13.16364 1.694482 -4.693211
          CHANNELS 3 Zrotation Xrotation Yrotation
          JOINT left_humerus
          {
            OFFSET 29.39168 -1.063119 -2.237045
            CHANNELS 3 Zrotation Xrotation Yrotation
            JOINT left_radius
            {
              OFFSET 24.59957 -0.9528479 0.9047498
              CHANNELS 3 Zrotation Xrotation Yrotation
              End Site
              {
                OFFSET 15 -0 -0
              }
            }
          }
        }
      }
    }
  }
}
MOTION
Frames: 19
Frame Time: 0.0416666666667
0 103.5113 0 2.21043 -1.040911 0.1467126 4.027016 -16.65853 10.49836 -0 37.10402 -0 -3.984058 -17.87598 -2.492524 -8.497087 10.22319 -22.35834 -0 4.368706 -0 21.8764 -8.175804 29.62326 -2.774354 -2.110651 5.023283 2.885734 10.15161 -7.32318 1.467105 21.22583 6.958654 3.239853 -25.47645 9.884962 5.459643 -19.3307 11.33358 87.04341 38.11681 -19.07163 -0 0 13.45728 -6.945289 8.194853 3.686082 6.091352 -20.92891 -1.922124 -91.44164 20.9648 20.30901 0 0 -17.34637 15.11797 12.32154 -2.641614
0.4761808 103.4619 1.72174 1.71096 0.09372828 0.243222 5.192485 -20.02148 11.47794 -0 37.3032 -0 -4.232877 -16.92894 -2.274847 -8.481874 10.507 -22.2583 -0 5.250582 -0 23.14195 -8.235895 30.24824 -2.887727 -2.006392 5.044766 3.031459 10.17059 -7.467154 1.43275 21.11189 6.998835 3.198491 -25.60752 9.928512 5.313643 -19.44269 11.3429 87.32321 38.66077 -19.24061 -0 0 13.3672 -6.428373 7.979274 3.433827 6.037174 -21.0332 -2.084153 -90.80221 20.61369 19.75277 0 0 -18.83724 15.61437 11.61261 -3.193054
0.8659656 103.3463 3.519489 1.436627 0.9870919 0.3670007 5.376577 -21.90993 10.60371 -0 34.67647 -0 -4.295169 -16.24667 -2.126147 -8.363942 10.87303 -22.28479 -0 5.140898 -0 20.49845 -11.0365 29.65369 -2.768502 -1.948922 4.847242 3.067031 10.15499 -7.464031 1.444778 21.1758 6.982125 3.133601 -25.6453 9.957643 5.382046 -19.1632 11.41142 87.36401 38.3347 -19.40797 -0 0 12.97552 -6.544128 8.121976 3.744416 5.913823 -20.88035 -2.14875 -90.72166 20.9507 19.53474 0 0 -18.86584 15.17549 11.78188 -2.744306
1.185421 103.2013 5.483049 0.979485 1.99747 0.5200741 5.945641 -24.6808 10.12158 -0 32.19282 -0 -4.511393 -15.00174 -1.964616 -8.135645 11.28841 -22.05942 -0 5.447192 -0 18.3976 -13.49968 28.9788 -2.693739 -1.861223 4.710116 3.01755 10.16559 -7.391684 1.424491 21.26216 7.001062 3.157924 -25.54238 9.905374 5.404573 -18.96559 11.46491 87.29772 38.08409 -19.31768 -0 0 12.71285 -6.964373 8.25042 4.099311 5.848374 -20.78844 -2.249552 -90.609 20.96489 19.32572 0 0 -18.6327 14.97181 11.83319 -2.626139
1.45769 102.9697 7.742316 0.5043288 2.61178 0.7025038 6.46643 -27.35608 9.230291 -0 29.1193 -0 -5.043117 -12.90431 -1.696027 -7.785074 11.75684 -21.36863 -0 6.223911 -0 16.50408 -15.55097 27.90558 -2.615438 -1.777935 4.54628 3.055647 10.16357 -7.401865 1.414827 21.30204 7.000948 3.115488 -25.55769 9.904345 5.424314 -18.75097 11.52731 87.3599 37.89293 -19.43776 -0 0 12.36968 -7.076277 8.332916 4.36567 5.737407 -20.68716 -2.355977 -90.38885 21.11312 19.00967 0 0 -18.88168 14.69831 11.80081 -2.384057
1.701523 102.6543 10.41974 0.01637221 3.080651 0.9273394 6.983554 -30.01985 8.251381 -0 25.72358 -0 -5.703993 -10.2749 -1.374897 -7.385725 12.2917 -20.3726 -0 7.447783 -0 14.78953 -17.21805 26.56925 -2.553543 -1.692521 4.395613 3.10226 10.16438 -7.425335 1.399342 21.32593 7.00644 3.076638 -25.58005 9.901049 5.427873 -18.56609 11.58583 87.44072 37.75898 -19.56235 -0 0 12.04725 -7.152792 8.389993 4.598119 5.634176 -20.60691 -2.470657 -90.12068 21.20195 18.66269 0 0 -19.23963 14.49036 11.69537 -2.21589
1.933434 102.2714 13.63399 -0.4211572 3.298691 1.216082 7.360776 -32.13776 7.123883 -0 22.27381 -0 -6.474543 -7.321121 -1.021158 -6.96739 12.90571 -19.13267 -0 9.296038 -0 13.12654 -18.3345 24.95591 -2.491736 -1.607243 4.235385 3.171845 10.16284 -7.472954 1.382143 21.33396 7.010177 3.024287 -25.6314 9.90522 5.427246 -18.38044 11.64736 87.55658 37.63946 -19.74204 -0 0 11.7036 -7.16507 8.434257 4.816509 5.521881 -20.52876 -2.591944 -89.80773 21.30439 18.27422 0 0 -19.73507 14.26929 11.54679 -2.028277
2.165318 101.8938 17.48662 -0.8320023 3.260181 1.591841 7.622721 -33.36409 5.963783 -0 19.28567 -0 -7.319582 -4.371099 -0.6947035 -6.497345 13.59255 -17.75831 -0 12.03188 -0 11.17898 -18.81415 22.98804 -2.432602 -1.525423 4.079318 3.23912 10.16218 -7.521971 1.361682 21.33772 7.015486 2.976715 -25.67925 9.902877 5.424186 -18.20499 11.70698 87.66944 37.51978 -19.91752 -0 0 11.37375 -7.191733 8.475487 5.035257 5.416404 -20.45768 -2.71178 -89.4943 21.38752 17.89109 0 0 -20.21934 14.05418 11.38644 -1.85069
2.407312 101.6359 22.03288 -1.260547 2.891716 2.044542 7.827845 -33.33989 4.82425 -0 17.32443 -0 -8.219483 -1.820863 -0.4352474 -5.902786 14.2504 -16.29795 -0 15.96085 -0 8.64676 -18.44281 20.51783 -2.372638 -1.45174 3.930755 3.296952 10.16198 -7.564325 1.340673 21.34418 7.018403 2.935333 -25.71526 9.89108 5.425985 -18.03663 11.76388 87.76357 37.3775 -20.07603 -0 0 11.06814 -7.250384 8.520106 5.258786 5.317986 -20.38882 -2.821579 -89.21967 21.47233 17.5503 0 0 -20.61044 13.82109 11.25234 -1.652996
2.667849 101.6326 27.25374 -1.749069 2.201892 2.500095 8.070279 -31.9853 3.737571 -0 16.6346 -0 -9.102134 -0.06830647 -0.270233 -5.134083 14.62176 -14.72357 -0 21.33657 -0 5.504991 -16.97318 17.46885 -2.311662 -1.388547 3.799127 3.33045 10.16387 -7.584148 1.321321 21.36466 7.016384 2.90765 -25.71887 9.862334 5.438229 -17.87669 11.81594 87.81217 37.19552 -20.1814 -0 0 10.80759 -7.379368 8.574132 5.492121 5.230261 -20.31989 -2.913478 -89.02953 21.56231 17.29668 0 0 -20.7928 13.56336 11.18406 -1.426802
2.946631 101.9935 33.04316 -2.260123 1.290911 2.81043 8.384439 -29.50021 2.703511 -0 16.82684 -0 -9.87899 0.7124108 -0.2407508 -4.258505 14.27886 -12.93756 -0 28.34518 -0 2.310247 -14.26293 14.10431 -2.247943 -1.336254 3.691365 3.327362 10.16892 -7.567583 1.305996 21.41028 7.005406 2.898027 -25.67159 9.809381 5.466236 -17.72244 11.86212 87.79181 36.95525 -20.20292 -0 0 10.60669 -7.611 8.643352 5.743065 5.152743 -20.24605 -2.981531 -88.96263 21.66878 17.16712 0 0 -20.66967 13.26371 11.2179 -1.151824
3.223415 102.7727 39.21335 -2.658206 0.3169424 2.809788 8.711428 -26.14642 1.84494 -0 17.0565 -0 -10.53098 0.6176259 -0.4519592 -3.458361 12.68788 -10.97229 -0 37.00062 -0 -0.06534271 -10.61527 11.13758 -2.179898 -1.293829 3.616991 3.271953 10.17823 -7.498936 1.295893 21.4917 6.98193 2.91224 -25.55006 9.721886 5.511927 -17.57355 11.89982 87.67614 36.64185 -20.10127 -0 0 10.48522 -7.989568 8.734359 6.024582 5.087612 -20.16411 -3.02001 -89.04991 21.79386 17.19234 0 0 -20.15399 12.90672 11.38201 -0.8132546
3.463149 103.9587 45.49899 -2.750974 -0.6110554 2.421415 8.84697 -21.91515 1.391044 -0 16.60358 -0 -11.09282 -0.2657747 -0.9809743 -2.909922 9.360338 -9.207003 -0 46.71345 -0 -1.276052 -6.942591 9.371321 -2.105691 -1.261036 3.590066 3.146532 10.19131 -7.3638 1.290833 21.61499 6.94262 2.955361 -25.33048 9.587903 5.571521 -17.43635 11.92321 87.4393 36.24915 -19.8334 -0 0 10.4736 -8.563595 8.853777 6.352436 5.041981 -20.07396 -3.020568 -89.30912 21.93173 17.39441 0 0 -19.19404 12.47634 11.68965 -0.3983614
3.646456 105.4531 51.59982 -2.369816 -1.460267 1.742285 8.449057 -16.68927 1.332367 -0 15.18852 -0 -11.44576 -1.964944 -1.611203 -2.680311 4.172205 -8.136257 -0 55.78223 -0 -1.92183 -4.381099 9.027969 -2.02404 -1.240872 3.632784 2.932308 10.20463 -7.151296 1.288979 21.777 6.885485 3.030924 -24.99267 9.39649 5.632028 -17.33115 11.92113 87.05814 35.78987 -19.3536 -0 0 10.62143 -9.377954 9.00649 6.740587 5.031946 -19.98124 -2.969298 -89.73878 22.064 17.78481 0 0 -17.80006 11.96422 12.12979 0.09539205
3.780449 107.0383 57.31882 -1.503591 -2.280022 1.000819 7.378763 -10.79746 1.312307 -0 12.95138 -0 -11.32362 -4.194128 -1.870933 -2.657713 -2.262631 -7.710798 -0 61.78459 -0 -2.657865 -3.499272 9.601925 -1.93396 -1.241107 3.773246 2.615573 10.20995 -6.859589 1.286728 21.9605 6.811741 3.138144 -24.53043 9.143647 5.669537 -17.29459 11.87808 86.52027 35.30269 -18.62593 -0 0 10.99391 -10.45436 9.192516 7.196373 5.082127 -19.89759 -2.847398 -90.309 22.16184 18.357 0 0 -16.07987 11.37692 12.657 0.6551073
3.866932 108.4059 62.66779 -0.4461196 -3.250909 0.3794405 6.108362 -4.964599 1.158495 -0 10.51178 -0 -10.71899 -6.279054 -1.653981 -2.426706 -8.753216 -7.236317 -0 62.91298 -0 -3.260001 -3.834407 10.65898 -1.833886 -1.272408 4.034674 2.196752 10.19532 -6.50066 1.278963 22.13473 6.728131 3.270151 -23.96148 8.838406 5.653132 -17.37094 11.77998 85.83355 34.84684 -17.64305 -0 0 11.64871 -11.77282 9.403897 7.71888 5.218042 -19.83685 -2.638628 -90.95839 22.19366 19.0785 0 0 -14.2432 10.74195 13.19163 1.249056
3.909834 109.2623 67.78044 0.3326816 -4.449294 -0.1071715 5.336198 0.3018975 1.099329 -0 8.616646 -0 -9.94498 -7.896599 -1.382412 -1.482582 -14.38193 -6.148604 -0 58.72204 -0 -3.169289 -4.410026 12.2317 -1.721349 -1.341703 4.418782 1.697917 10.14968 -6.10048 1.260522 22.26578 6.646385 3.41425 -23.32892 8.503797 5.55671 -17.58977 11.62373 85.03147 34.47889 -16.44275 -0 0 12.59711 -13.26453 9.623645 8.300383 5.450386 -19.80692 -2.34224 -91.60676 22.13981 19.89036 0 0 -12.54535 10.10242 13.64092 1.834695
3.95992 109.4532 72.78941 0.5496055 -5.471849 -0.5628034 5.243963 4.819628 1.281806 -0 7.564204 -0 -9.202372 -9.446584 -1.29122 0.2273029 -18.98294 -4.557993 -0 50.00913 -0 -2.44457 -4.611117 14.09974 -1.595228 -1.443973 4.896198 1.161347 10.06971 -5.692098 1.228815 22.33283 6.577933 3.554657 -22.68818 8.169245 5.372902 -17.9436 11.42339 84.16888 34.2262 -15.1066 -0 0 13.7765 -14.82455 9.82904 8.926965 5.760706 -19.80274 -1.98239 -92.18003 22.00431 20.71812 0 0 -11.19059 9.500224 13.93349 2.376132
4.097345 109.0181 77.83231 0.2412788 -5.780801 -1.080358 5.509651 8.483353 1.540279 -0 7.332458 -0 -8.484129 -11.37054 -1.199046 2.230154 -22.62205 -2.916703 -0 38.75716 -0 -1.634792 -4.407439 15.65925 -1.459517 -1.559504 5.413837 0.6378864 9.963443 -5.305531 1.185894 22.33803 6.527272 3.676367 -22.08747 7.85918 5.118747 -18.38428 11.20749 83.30903 34.07826 -13.73808 -0 0 15.06026 -16.33782 9.999045 9.576533 6.101348 -19.80728 -1.604885 -92.63053 21.81394 21.4885 0 0 -10.2649 8.959598 14.04313 2.858458
